#!OML:ASF E:\motion texture\Top Level 1\Subject 1\Session 1\male.ASF
:FULLY-SPECIFIED
:DEGREES
599
root -19.7197 17.9797 3.01346 90.0858 -79.7752 -81.184
lowerback 2.26395 3.22264 11.2511
upperback 1.47008 4.4348 0.51975
thorax 1.08739 2.30825 -5.77058
lowerneck -13.4164 5.75132 -1.13204
upperneck 34.2817 9.91938 -6.09643
head 14.3071 2.92649 -0.784015
rclavicle -1.71949e-014 -2.74323e-014
rhumerus -24.1865 -6.76782 -74.8956
rradius 41.6901
rwrist 8.29827
rhand -18.8517 -25.9381
rfingers 7.12502
rthumb 7.44829 -55.787
lclavicle -1.71949e-014 -2.74323e-014
lhumerus -37.0902 11.6519 83.4204
lradius 59.0651
lwrist -23.001
lhand -20.1786 17.9241
lfingers 7.12502
lthumb 6.1674 47.8143
rfemur -5.43131 -0.00581185 28.2383
rtibia 21.085
rfoot -14.6794 -3.91749
rtoes 1.68948
lfemur -35.3412 -5.71041 -0.233191
ltibia 40.5652
lfoot -9.46878 -6.04461
ltoes -16.0303
600
root -19.8435 17.954 3.05019 91.1961 -79.6838 -82.2016
lowerback 2.2696 3.16042 11.3524
upperback 1.38971 4.35632 0.690441
thorax 0.97964 2.25794 -5.65282
lowerneck -13.7634 5.26479 -1.39932
upperneck 34.5817 9.18798 -5.75167
head 14.4549 2.59853 -0.712837
rclavicle -2.96189e-014 1.78906e-014
rhumerus -23.9655 -6.75792 -74.7118
rradius 41.8295
rwrist 8.29434
rhand -19.0444 -25.9624
rfingers 7.12502
rthumb 7.26233 -55.8178
lclavicle -2.96189e-014 1.78906e-014
lhumerus -36.5333 11.7133 83.5856
lradius 60.0658
lwrist -23.1407
lhand -20.6227 17.8397
lfingers 7.12502
lthumb 5.73861 47.742
rfemur -5.17385 0.0794236 28.1674
rtibia 21.2793
rfoot -14.9528 -3.57944
rtoes 0.917511
lfemur -35.8104 -5.74907 -0.276606
ltibia 40.5877
lfoot -9.52285 -6.31394
ltoes -15.7567
601
root -19.969 17.9272 3.08907 92.3534 -79.5906 -83.2644
lowerback 2.27508 3.09047 11.4431
upperback 1.30591 4.26765 0.867558
thorax 0.865441 2.20177 -5.52267
lowerneck -14.124 4.75551 -1.68944
upperneck 34.8907 8.41857 -5.38079
head 14.6137 2.25591 -0.633933
rclavicle 1.9133e-014 5.64548e-014
rhumerus -23.755 -6.75234 -74.5052
rradius 41.974
rwrist 8.29615
rhand -19.2442 -25.9872
rfingers 7.12502
rthumb 7.0694 -55.8492
lclavicle 1.9133e-014 5.64548e-014
lhumerus -35.9673 11.7741 83.6925
lradius 61.0909
lwrist -23.2817
lhand -21.0552 17.7668
lfingers 7.12502
lthumb 5.32102 47.68
rfemur -4.92226 0.17721 28.0876
rtibia 21.4874
rfoot -15.2178 -3.24464
rtoes 0.139722
lfemur -36.265 -5.79172 -0.334713
ltibia 40.6806
lfoot -9.5795 -6.57856
ltoes -15.4641
602
root -20.0966 17.8994 3.13014 93.5607 -79.4947 -84.3763
lowerback 2.27996 3.01328 11.5243
upperback 1.2187 4.16938 1.05093
thorax 0.745402 2.14013 -5.38074
lowerneck -14.4941 4.22306 -2.00396
upperneck 35.2059 7.61015 -4.98378
head 14.7826 1.89852 -0.547384
rclavicle -2.58917e-014 -1.94809e-014
rhumerus -23.5597 -6.75281 -74.274
rradius 42.1288
rwrist 8.30265
rhand -19.4479 -26.018
rfingers 7.12502
rthumb 6.87276 -55.8865
lclavicle -2.58917e-014 -1.94809e-014
lhumerus -35.3962 11.8319 83.7351
lradius 62.1431
lwrist -23.4172
lhand -21.4785 17.7087
lfingers 7.12502
lthumb 4.9123 47.6318
rfemur -4.67495 0.286579 27.9986
rtibia 21.7083
rfoot -15.4705 -2.911
rtoes -0.638718
lfemur -36.7 -5.83849 -0.407708
ltibia 40.8385
lfoot -9.6406 -6.8367
ltoes -15.1466
603
root -20.2264 17.8708 3.17336 94.8232 -79.3954 -85.5437
lowerback 2.28538 2.92936 11.5956
upperback 1.12868 4.06232 1.24087
thorax 0.619756 2.07347 -5.22662
lowerneck -14.8716 3.66657 -2.34662
upperneck 35.5252 6.76122 -4.55853
head 14.9615 1.52593 -0.452054
rclavicle 1.59028e-014 1.39149e-015
rhumerus -23.3814 -6.76174 -74.0156
rradius 42.2966
rwrist 8.31643
rhand -19.6584 -26.0529
rfingers 7.12502
rthumb 6.66955 -55.9279
lclavicle 1.59028e-014 1.39149e-015
lhumerus -34.8232 11.8872 83.7075
lradius 63.2257
lwrist -23.5426
lhand -21.8904 17.6681
lfingers 7.12502
lthumb 4.51461 47.6
rfemur -4.43064 0.409289 27.9005
rtibia 21.9414
rfoot -15.7062 -2.57888
rtoes -1.41702
lfemur -37.1093 -5.88809 -0.494935
ltibia 41.0553
lfoot -9.70767 -7.08685
ltoes -14.8014
604
root -20.3585 17.8417 3.21881 96.1477 -79.2929 -86.7722
lowerback 2.28998 2.83884 11.6569
upperback 1.03431 3.94656 1.43687
thorax 0.487845 2.0018 -5.06057
lowerneck -15.2457 3.08641 -2.71697
upperneck 35.8437 5.87114 -4.10645
head 15.1477 1.13835 -0.348982
rclavicle -3.44394e-014 -5.32743e-014
rhumerus -23.2224 -6.77692 -73.7282
rradius 42.4784
rwrist 8.33596
rhand -19.8756 -26.0933
rfingers 7.12502
rthumb 6.45991 -55.9747
lclavicle -3.44394e-014 -5.32743e-014
lhumerus -34.2552 11.942 83.6019
lradius 64.341
lwrist -23.6535
lhand -22.2898 17.6454
lfingers 7.12502
lthumb 4.12896 47.5851
rfemur -4.19388 0.544248 27.791
rtibia 22.1907
rfoot -15.919 -2.24565
rtoes -2.18267
lfemur -37.4896 -5.93974 -0.598102
ltibia 41.3252
lfoot -9.78348 -7.32436
ltoes -14.4299
605
root -20.493 17.8125 3.26658 97.5455 -79.1886 -88.0714
lowerback 2.29333 2.74176 11.7055
upperback 0.935965 3.82203 1.63876
thorax 0.35031 1.92516 -4.88124
lowerneck -15.6135 2.48289 -3.11374
upperneck 36.1578 4.9404 -3.6307
head 15.3409 0.736085 -0.239734
rclavicle -8.19987e-015 -4.77083e-014
rhumerus -23.0831 -6.79682 -73.4101
rradius 42.6786
rwrist 8.35951
rhand -20.1055 -26.1393
rfingers 7.12502
rthumb 6.23792 -56.0275
lclavicle -8.19987e-015 -4.77083e-014
lhumerus -33.6963 12.0015 83.4117
lradius 65.4928
lwrist -23.7483
lhand -22.6757 17.6428
lfingers 7.12502
lthumb 3.75627 47.5894
rfemur -3.97125 0.689213 27.6662
rtibia 22.4624
rfoot -16.1037 -1.91009
rtoes -2.9317
lfemur -37.8383 -5.99157 -0.720112
ltibia 41.6418
lfoot -9.87034 -7.54538
ltoes -14.0331
606
root -20.6302 17.7834 3.31667 99.0214 -79.0824 -89.4463
lowerback 2.29372 2.63887 11.7409
upperback 0.833257 3.68951 1.84648
thorax 0.208009 1.84404 -4.68829
lowerneck -15.9644 1.85668 -3.53756
upperneck 36.4618 3.96904 -3.13224
head 15.5377 0.319415 -0.124797
rclavicle -9.44227e-016 -4.09496e-014
rhumerus -22.9662 -6.82028 -73.0585
rradius 42.9002
rwrist 8.38792
rhand -20.3444 -26.1914
rfingers 7.12502
rthumb 6.00735 -56.0862
lclavicle -9.44227e-016 -4.09496e-014
lhumerus -33.1529 12.0675 83.1306
lradius 66.6822
lwrist -23.8261
lhand -23.047 17.6591
lfingers 7.12502
lthumb 3.39772 47.6118
rfemur -3.76381 0.841587 27.5242
rtibia 22.7568
rfoot -16.2537 -1.57155
rtoes -3.65486
lfemur -38.149 -6.04256 -0.863016
ltibia 41.9956
lfoot -9.96893 -7.74576
ltoes -13.6112
607
root -20.7701 17.7547 3.36904 100.591 -78.9731 -90.9116
lowerback 2.29061 2.5313 11.7618
upperback 0.72614 3.55037 2.0601
thorax 0.0615654 1.7592 -4.48087
lowerneck -16.2915 1.208 -3.98972
upperneck 36.7505 2.95673 -2.61102
head 15.7359 -0.111673 -0.00409027
rclavicle 4.48508e-015 2.34069e-014
rhumerus -22.8726 -6.84889 -72.6714
rradius 43.1435
rwrist 8.4221
rhand -20.5903 -26.2509
rfingers 7.12502
rthumb 5.76993 -56.1524
lclavicle 4.48508e-015 2.34069e-014
lhumerus -32.6292 12.1452 82.7523
lradius 67.908
lwrist -23.8885
lhand -23.4053 17.687
lfingers 7.12502
lthumb 3.05171 47.6449
rfemur -3.57639 1.00052 27.364
rtibia 23.0783
rfoot -16.3618 -1.22997
rtoes -4.3498
lfemur -38.417 -6.0887 -1.02749
ltibia 42.3779
lfoot -10.0802 -7.92085
ltoes -13.165
608
root -20.9129 17.7268 3.42373 102.257 -78.862 -92.4703
lowerback 2.28294 2.41887 11.7655
upperback 0.614824 3.40412 2.27936
thorax -0.0881877 1.67051 -4.25764
lowerneck -16.5868 0.53881 -4.46937
upperneck 37.0182 1.90558 -2.06857
head 15.9327 -0.556204 0.121868
rclavicle -2.42156e-014 5.73059e-016
rhumerus -22.7998 -6.8825 -72.2469
rradius 43.4073
rwrist 8.46331
rhand -20.8403 -26.3112
rfingers 7.12502
rthumb 5.52857 -56.2191
lclavicle -2.42156e-014 5.73059e-016
lhumerus -32.1332 12.2396 82.2695
lradius 69.1717
lwrist -23.9373
lhand -23.7475 17.726
lfingers 7.12502
lthumb 2.72124 47.6883
rfemur -3.4119 1.16542 27.1824
rtibia 23.4254
rfoot -16.4185 -0.886778
rtoes -5.00826
lfemur -38.6382 -6.12797 -1.218
ltibia 42.7794
lfoot -10.2033 -8.06802
ltoes -12.6959
609
root -21.0586 17.7 3.48066 104.032 -78.749 -94.1335
lowerback 2.27058 2.30262 11.7491
upperback 0.498479 3.25214 2.50409
thorax -0.241716 1.57871 -4.01724
lowerneck -16.8392 -0.14901 -4.97502
upperneck 37.2589 0.817353 -1.50737
head 16.1242 -1.01354 0.252005
rclavicle -1.02623e-014 5.561e-014
rhumerus -22.752 -6.91861 -71.7827
rradius 43.6965
rwrist 8.50919
rhand -21.0931 -26.3749
rfingers 7.12502
rthumb 5.28448 -56.289
lclavicle -1.02623e-014 5.561e-014
lhumerus -31.6711 12.3545 81.6772
lradius 70.4727
lwrist -23.9658
lhand -24.0765 17.781
lfingers 7.12502
lthumb 2.40347 47.7472
rfemur -3.27424 1.33759 26.9775
rtibia 23.8001
rfoot -16.4182 -0.547704
rtoes -5.63315
lfemur -38.8078 -6.1572 -1.43674
ltibia 43.1894
lfoot -10.3362 -8.18359
ltoes -12.2045
610
root -21.2073 17.6748 3.53986 105.92 -78.6322 -95.907
lowerback 2.25276 2.18331 11.7131
upperback 0.377247 3.09525 2.73428
thorax -0.397982 1.48433 -3.7598
lowerneck -17.0383 -0.852577 -5.50423
upperneck 37.4667 -0.304681 -0.930313
head 16.3066 -1.48256 0.385207
rclavicle 1.07841e-014 1.16289e-014
rhumerus -22.7302 -6.95654 -71.2772
rradius 44.012
rwrist 8.55704
rhand -21.35 -26.443
rfingers 7.12502
rthumb 5.03639 -56.3631
lclavicle 1.07841e-014 1.16289e-014
lhumerus -31.252 12.4949 80.9693
lradius 71.8097
lwrist -23.972
lhand -24.3946 17.843
lfingers 7.12502
lthumb 2.09622 47.8125
rfemur -3.16623 1.5138 26.7484
rtibia 24.2036
rfoot -16.3545 -0.221116
rtoes -6.23295
lfemur -38.9197 -6.17452 -1.68502
ltibia 43.5959
lfoot -10.4772 -8.26509
ltoes -11.7001
611
root -21.3591 17.6514 3.60127 107.924 -78.5113 -97.7928
lowerback 2.23027 2.06026 11.6547
upperback 0.252749 2.93245 2.96969
thorax -0.555703 1.38712 -3.48413
lowerneck -17.1814 -1.56794 -6.05229
upperneck 37.6369 -1.45522 -0.341039
head 16.478 -1.96122 0.520024
rclavicle 1.34428e-014 7.7526e-015
rhumerus -22.7318 -6.99173 -70.7302
rradius 44.3566
rwrist 8.59951
rhand -21.6124 -26.5158
rfingers 7.12502
rthumb 4.78304 -56.4418
lclavicle 1.34428e-014 7.7526e-015
lhumerus -30.876 12.6681 80.14
lradius 73.1755
lwrist -23.9549
lhand -24.6886 17.9214
lfingers 7.12502
lthumb 1.81234 47.8935
rfemur -3.0902 1.69027 26.4925
rtibia 24.6373
rfoot -16.228 0.077319
rtoes -6.78552
lfemur -38.9692 -6.17922 -1.9655
ltibia 43.9883
lfoot -10.6232 -8.31115
ltoes -11.1897
612
root -21.5141 17.6304 3.66486 110.042 -78.3835 -99.7902
lowerback 2.20133 1.93371 11.5749
upperback 0.125625 2.76369 3.21039
thorax -0.712813 1.28723 -3.19052
lowerneck -17.2589 -2.29092 -6.61721
upperneck 37.7641 -2.6298 0.260486
head 16.6341 -2.44787 0.657021
rclavicle -1.32192e-014 -1.64991e-014
rhumerus -22.7562 -7.02313 -70.1412
rradius 44.7304
rwrist 8.6367
rhand -21.8816 -26.5937
rfingers 7.12502
rthumb 4.52305 -56.5254
lclavicle -1.32192e-014 -1.64991e-014
lhumerus -30.5512 12.879 79.1839
lradius 74.5666
lwrist -23.9099
lhand -24.9625 18.0096
lfingers 7.12502
lthumb 1.54775 47.9838
rfemur -3.04933 1.86456 26.2105
rtibia 25.1021
rfoot -16.044 0.342276
rtoes -7.30842
lfemur -38.9519 -6.1708 -2.27763
ltibia 44.3545
lfoot -10.7698 -8.32054
ltoes -10.6839
